<svg width="17" height="17" viewBox="0 0 17 17" fill="none" xmlns="http://www.w3.org/2000/svg">
<path d="M6.36743 11.2401C5.91091 10.7836 5.17219 10.7836 4.71568 11.2401C4.53722 11.4185 4.42932 11.6427 4.39197 11.8751C3.96036 11.8419 3.52045 11.9747 3.20504 12.2859C2.98508 12.5059 2.86888 12.7922 2.81492 13.0952C2.25466 13.0371 1.67364 13.1906 1.24618 13.6223C0.490857 14.3776 0.490857 15.6019 1.24618 16.3572C2.0015 17.1125 3.22579 17.1125 3.98111 16.3572C4.41272 15.9256 4.57043 15.3487 4.50817 14.7843C4.81113 14.7303 5.09749 14.6141 5.31745 14.3942C5.59965 14.112 5.75736 13.7343 5.75736 13.3401C5.75736 13.2944 5.74906 13.2487 5.74491 13.2072C5.97317 13.1699 6.19312 13.062 6.36743 12.8877H6.37158C6.82394 12.4353 6.82394 11.6966 6.36743 11.2401Z" fill="#66A8F0"/>
<path d="M12.4471 9.96597L14.3188 8.09427C16.1075 6.26407 16.7881 2.73646 16.9998 1.24657C16.9998 1.07642 16.9583 0.906261 16.8296 0.777607C16.701 0.648954 16.5308 0.565951 16.3607 0.607452C14.8293 0.819109 11.3349 1.45823 9.50466 3.28843L7.63295 5.16013C6.56637 4.0977 4.90633 4.0977 3.84389 5.16013L2.3125 6.69153C2.3125 6.69153 4.1925 8.13162 6.83198 10.7711C9.13945 13.0786 10.5256 14.8009 10.841 15.1993C10.8659 15.2283 10.8949 15.2574 10.9157 15.2864L12.4471 13.755C13.5095 12.6885 13.5095 11.0326 12.4471 9.96597ZM11.9698 7.12314C11.5714 7.12314 11.1938 6.96544 10.9157 6.68323C10.6335 6.40102 10.4758 6.02336 10.4758 5.6291C10.4758 5.23484 10.6335 4.85303 10.9157 4.57497C11.2311 4.25956 11.6752 4.12675 12.1026 4.16411C12.14 3.93585 12.2479 3.70759 12.4263 3.52914C12.8829 3.07262 13.6216 3.07262 14.0781 3.52914C14.5346 3.98565 14.5346 4.72437 14.0781 5.18088H14.0739C13.8996 5.35519 13.6838 5.46309 13.4514 5.50044C13.4556 5.54195 13.4639 5.58345 13.4639 5.63325C13.4639 6.02751 13.3062 6.40932 13.024 6.68738C12.7459 6.96544 12.3682 7.12314 11.9698 7.12314Z" fill="#66A8F0"/>
</svg>
