<svg xmlns="http://www.w3.org/2000/svg" width="422.77" height="854.942" viewBox="0 0 422.77 854.942">
  <g id="Group_2693" data-name="Group 2693" transform="translate(-2262.643 16887.5)">
    <path id="Exclusion_1" data-name="Exclusion 1" d="M349.505,853.943H66.722a66.408,66.408,0,0,1-37.305-11.4A66.918,66.918,0,0,1,5.243,813.19,66.315,66.315,0,0,1,0,787.216V66.724A66.414,66.414,0,0,1,11.4,29.418,66.918,66.918,0,0,1,40.751,5.244,66.3,66.3,0,0,1,66.722,0H349.505a66.416,66.416,0,0,1,37.306,11.4,66.926,66.926,0,0,1,24.177,29.357,66.3,66.3,0,0,1,5.244,25.972V787.216a66.41,66.41,0,0,1-11.4,37.308A66.925,66.925,0,0,1,375.477,848.7,66.307,66.307,0,0,1,349.505,853.943ZM68.088,20.128A47.775,47.775,0,0,0,20.275,67.943V786a47.773,47.773,0,0,0,47.812,47.814h280.05A47.775,47.775,0,0,0,395.953,786V67.943a47.776,47.776,0,0,0-47.815-47.815H68.088Z" transform="translate(2265.527 -16887)" stroke="rgba(0,0,0,0)" stroke-miterlimit="10" stroke-width="1"/>
    <rect id="Rectangle_1644" data-name="Rectangle 1644" width="2.437" height="102.923" transform="translate(2681.757 -16668.818)" fill="#66a8f0" opacity="0.5"/>
    <path id="Path_56148" data-name="Path 56148" d="M0,0H1.219V102.9H0Z" transform="translate(2684.194 -16668.791)" fill="#66a8f0" opacity="0.5"/>
    <rect id="Rectangle_1647" data-name="Rectangle 1647" width="1.391" height="65.2" transform="translate(2262.643 -16690.482)" fill="#66a8f0" opacity="0.5"/>
    <rect id="Rectangle_1648" data-name="Rectangle 1648" width="1.391" height="65.2" transform="translate(2262.643 -16690.482)" fill="#66a8f0" opacity="0.5"/>
    <rect id="Rectangle_1650" data-name="Rectangle 1650" width="1.491" height="65.2" transform="translate(2264.034 -16690.465)" fill="#66a8f0" opacity="0.5"/>
    <rect id="Rectangle_1651" data-name="Rectangle 1651" width="1.491" height="65.2" transform="translate(2264.034 -16690.465)" fill="#66a8f0" opacity="0.5"/>
    <rect id="Rectangle_1652" data-name="Rectangle 1652" width="1.391" height="65.2" transform="translate(2262.643 -16608.459)" fill="#66a8f0" opacity="0.5"/>
    <rect id="Rectangle_1653" data-name="Rectangle 1653" width="1.391" height="65.2" transform="translate(2262.643 -16608.459)" fill="#66a8f0" opacity="0.5"/>
    <rect id="Rectangle_1655" data-name="Rectangle 1655" width="1.491" height="65.2" transform="translate(2264.034 -16608.439)" fill="#66a8f0" opacity="0.5"/>
    <rect id="Rectangle_1656" data-name="Rectangle 1656" width="1.491" height="65.2" transform="translate(2264.034 -16608.439)" fill="#66a8f0" opacity="0.5"/>
    <rect id="Rectangle_1657" data-name="Rectangle 1657" width="1.391" height="33.464" transform="translate(2262.643 -16752.082)" fill="#66a8f0" opacity="0.5"/>
    <rect id="Rectangle_1658" data-name="Rectangle 1658" width="1.391" height="33.464" transform="translate(2262.643 -16752.082)" fill="#66a8f0" opacity="0.5"/>
    <rect id="Rectangle_1660" data-name="Rectangle 1660" width="1.491" height="33.468" transform="translate(2264.034 -16752.066)" fill="#66a8f0" opacity="0.5"/>
    <rect id="Rectangle_1661" data-name="Rectangle 1661" width="1.491" height="33.468" transform="translate(2264.034 -16752.066)" fill="#66a8f0" opacity="0.5"/>
    <g id="Group_2692" data-name="Group 2692" transform="translate(2267.513 -16885.012)">
      <path id="Path_54658" data-name="Path 54658" d="M351.7,1H68.42A65.619,65.619,0,0,0,2.8,66.62v723.4a65.619,65.619,0,0,0,65.62,65.62H351.7a65.619,65.619,0,0,0,65.62-65.62V66.62A65.619,65.619,0,0,0,351.7,1m63.621,788.49a64.147,64.147,0,0,1-64.147,64.147H68.945A64.146,64.146,0,0,1,4.8,789.49V67.145A64.146,64.146,0,0,1,68.945,3h282.23a64.147,64.147,0,0,1,64.147,64.147Z" transform="translate(-3.932 -3.334)" fill="#66a8f0" opacity="0.803"/>
    </g>
  </g>
</svg>
