<svg width="117" height="29" viewBox="0 0 117 29" fill="none" xmlns="http://www.w3.org/2000/svg">
<path d="M62.0723 7.23184C61.1708 7.23184 60.4108 6.91513 59.8098 6.29169C59.2137 5.6857 58.8809 4.85029 58.8958 3.99742C58.8958 3.0872 59.2038 2.31663 59.8098 1.70565C60.4083 1.08221 61.1683 0.765503 62.0698 0.765503C62.9614 0.765503 63.7213 1.08221 64.3323 1.70565C64.9383 2.33658 65.2462 3.10715 65.2462 3.99742C65.2363 4.91014 64.9283 5.68071 64.3323 6.28919C63.7337 6.91762 62.9738 7.23184 62.0723 7.23184ZM35.2478 7.23184C34.3661 7.23184 33.6012 6.92012 32.9753 6.30416C32.3545 5.69069 32.0391 4.91513 32.0391 3.99992C32.0391 3.08471 32.3545 2.30914 32.9753 1.69568C33.5888 1.07972 34.3537 0.767997 35.2478 0.767997C35.6849 0.767997 36.1095 0.855279 36.5168 1.03234C36.9167 1.20441 37.242 1.43882 37.4829 1.7256L37.5425 1.79792L36.8695 2.46126L36.8 2.37897C36.42 1.9251 35.9109 1.70316 35.2378 1.70316C34.6368 1.70316 34.1128 1.91762 33.6807 2.34156C33.2461 2.768 33.025 3.3266 33.025 4.00241C33.025 4.67822 33.2461 5.23683 33.6807 5.66326C34.1128 6.0872 34.6368 6.30166 35.2378 6.30166C35.8786 6.30166 36.4175 6.0872 36.8372 5.66326C37.0856 5.41388 37.2396 5.06476 37.2942 4.62336H35.136V3.69069H38.2205L38.233 3.77548C38.2553 3.93259 38.2777 4.09468 38.2777 4.24431C38.2777 5.10466 38.0194 5.80042 37.5078 6.31413C36.9266 6.92261 36.1667 7.23184 35.2478 7.23184ZM70.9136 7.09967H69.9624L67.0492 2.41887L67.0741 3.26176V7.09717H66.1229V0.900167H67.2082L67.238 0.947548L69.9773 5.35653L69.9525 4.51613V0.900167H70.9136V7.09967V7.09967ZM54.9247 7.09967H53.9611V1.83284H52.2897V0.900167H56.5936V1.83284H54.9222V7.09967H54.9247ZM51.5049 7.09967H50.5438V0.900167H51.5049V7.09967ZM46.1032 7.09967H45.1421V1.83284H43.4707V0.900167H47.7746V1.83284H46.1032V7.09967ZM42.8622 7.08969H39.1767V0.900167H42.8622V1.83284H40.1403V3.53358H42.5965V4.45628H40.1403V6.15702H42.8622V7.08969ZM60.5151 5.65079C60.9447 6.08221 61.4663 6.29917 62.0723 6.29917C62.6956 6.29917 63.2048 6.0872 63.6294 5.65079C64.0516 5.22685 64.2652 4.67074 64.2652 3.99992C64.2652 3.32909 64.0516 2.77049 63.6319 2.34904C63.2023 1.91762 62.6782 1.70067 62.0747 1.70067C61.4514 1.70067 60.9423 1.91264 60.5201 2.34904C60.0979 2.77298 59.8843 3.32909 59.8843 3.99992C59.8843 4.67074 60.0954 5.22934 60.5151 5.65079Z" fill="white"/>
<path fill-rule="evenodd" clip-rule="evenodd" d="M58.804 15.7557C56.457 15.7557 54.5546 17.5437 54.5546 20.01C54.5546 22.4539 56.4695 24.2644 58.804 24.2644C61.1509 24.2644 63.0533 22.4639 63.0533 20.01C63.0533 17.5437 61.1509 15.7557 58.804 15.7557ZM58.804 22.5786C57.52 22.5786 56.4148 21.5113 56.4148 20.0001C56.4148 18.4664 57.5225 17.4215 58.804 17.4215C60.088 17.4215 61.1931 18.4664 61.1931 20.0001C61.1956 21.5212 60.088 22.5786 58.804 22.5786ZM49.5329 15.7557C47.186 15.7557 45.2836 17.5437 45.2836 20.01C45.2836 22.4539 47.1984 24.2644 49.5329 24.2644C51.8799 24.2644 53.7823 22.4639 53.7823 20.01C53.7823 17.5437 51.8774 15.7557 49.5329 15.7557ZM49.5329 22.5786C48.2489 22.5786 47.1438 21.5113 47.1438 20.0001C47.1438 18.4664 48.2514 17.4215 49.5329 17.4215C50.8169 17.4215 51.9221 18.4664 51.9221 20.0001C51.9221 21.5212 50.8169 22.5786 49.5329 22.5786ZM38.5011 17.0549V18.8554H42.805C42.6734 19.8654 42.3406 20.611 41.8315 21.1222C41.2007 21.7557 40.2271 22.4439 38.511 22.4439C35.866 22.4439 33.7972 20.2993 33.7972 17.6434C33.7972 14.9876 35.866 12.8429 38.511 12.8429C39.939 12.8429 40.9796 13.409 41.752 14.1322L43.0236 12.8554C41.9507 11.823 40.5227 11.0325 38.5209 11.0325C34.8925 11.0325 31.8477 14.0001 31.8477 17.6335C31.8477 21.2769 34.89 24.2345 38.5209 24.2345C40.4804 24.2345 41.9507 23.5911 43.113 22.3791C44.2976 21.1896 44.6727 19.5113 44.6727 18.1572C44.6727 17.7357 44.6404 17.3567 44.5733 17.035H38.4986C38.5011 17.0325 38.5011 17.0549 38.5011 17.0549ZM83.6245 18.4564C83.2693 17.5013 82.1964 15.7457 79.996 15.7457C77.8155 15.7457 76.0025 17.4689 76.0025 20.0001C76.0025 22.3891 77.7956 24.2544 80.2071 24.2544C82.1443 24.2544 83.2718 23.0649 83.7362 22.3666L82.2983 21.3991C81.8214 22.1098 81.1583 22.5761 80.2171 22.5761C79.2659 22.5761 78.6003 22.1422 78.1582 21.2868L83.8231 18.9302C83.8231 18.9327 83.6245 18.4564 83.6245 18.4564ZM77.8478 19.8779C77.803 18.2345 79.1193 17.3991 80.0606 17.3991C80.8032 17.3991 81.4216 17.7656 81.6327 18.2993L77.8478 19.8779ZM73.2458 24.0001H75.1059V11.5013H73.2458V24.0001ZM70.191 16.7008H70.1239C69.7042 16.1996 68.907 15.7457 67.8888 15.7457C65.7753 15.7457 63.8282 17.6135 63.8282 20.0125C63.8282 22.4015 65.7653 24.2469 67.8888 24.2469C68.8946 24.2469 69.7042 23.7906 70.1239 23.2794H70.191V23.8903C70.191 25.5138 69.3267 26.3891 67.9335 26.3891C66.7935 26.3891 66.0857 25.5661 65.7976 24.8779L64.1808 25.5562C64.6453 26.6784 65.8846 28.0674 67.931 28.0674C70.1115 28.0674 71.9593 26.7781 71.9593 23.6335V16.0001H70.2009V16.7008C70.2034 16.7008 70.191 16.7008 70.191 16.7008ZM68.0552 22.5786C66.7712 22.5786 65.6983 21.5013 65.6983 20.0125C65.6983 18.5113 66.7712 17.424 68.0552 17.424C69.3267 17.424 70.3127 18.5237 70.3127 20.0125C70.3251 21.5013 69.3292 22.5786 68.0552 22.5786ZM92.3342 11.5013H87.8862V24.0001H89.7464V19.2669H92.3367C94.3956 19.2669 96.4197 17.7681 96.4197 15.3891C96.4197 13.01 94.403 11.5013 92.3342 11.5013ZM92.3889 17.5212H89.7439V13.232H92.3889C93.7821 13.232 94.5694 14.3866 94.5694 15.3766C94.5694 16.3567 93.7722 17.5212 92.3889 17.5212ZM103.875 15.7332C102.524 15.7332 101.131 16.3342 100.555 17.6434L102.204 18.3317C102.559 17.6434 103.21 17.409 103.898 17.409C104.861 17.409 105.835 17.9876 105.857 19.02V19.1522C105.524 18.9626 104.794 18.6734 103.92 18.6734C102.139 18.6734 100.334 19.6509 100.334 21.4838C100.334 23.1621 101.794 24.2395 103.421 24.2395C104.67 24.2395 105.358 23.6734 105.788 23.0175H105.855V23.9851H107.648V19.1971C107.648 16.9676 105.999 15.7332 103.875 15.7332ZM103.642 22.5786C103.033 22.5786 102.181 22.2794 102.181 21.5113C102.181 20.5437 103.244 20.1771 104.151 20.1771C104.97 20.1771 105.358 20.3542 105.845 20.5986C105.711 21.7207 104.767 22.5686 103.642 22.5786ZM114.189 16.0001L112.054 21.4215H111.986L109.774 16.0001H107.772L111.092 23.5786L109.2 27.7906H111.137L116.246 16.0001H114.189ZM97.4454 24.0001H99.3055V11.5013H97.4454V24.0001Z" fill="white"/>
<path fill-rule="evenodd" clip-rule="evenodd" d="M1.34511 1.53364C1.05702 1.84536 0.890625 2.32167 0.890625 2.94511V25.0573C0.890625 25.6808 1.05702 26.1571 1.35505 26.4563L1.43204 26.5237L13.7702 14.1346V13.8578L1.4221 1.46631L1.34511 1.53364Z" fill="url(#paint0_linear_37_250)"/>
<path fill-rule="evenodd" clip-rule="evenodd" d="M17.8731 18.2768L13.7578 14.1446V13.8553L17.8731 9.72314L17.9625 9.77801L22.8302 12.5561C24.2235 13.3441 24.2235 14.6458 22.8302 15.4438L17.9625 18.2219L17.8731 18.2768Z" fill="url(#paint1_linear_37_250)"/>
<path fill-rule="evenodd" clip-rule="evenodd" d="M17.9636 18.2219L13.7589 14L1.34375 26.4663C1.79824 26.9551 2.56068 27.01 3.41254 26.5337L17.9636 18.2219Z" fill="url(#paint2_linear_37_250)"/>
<path fill-rule="evenodd" clip-rule="evenodd" d="M17.9636 9.77807L3.41254 1.47882C2.56068 0.990038 1.79575 1.05737 1.34375 1.54615L13.7589 14L17.9636 9.77807Z" fill="url(#paint3_linear_37_250)"/>
<path opacity="0.2" fill-rule="evenodd" clip-rule="evenodd" d="M17.876 18.1322L3.42426 26.3766C2.61711 26.8429 1.89688 26.8105 1.43246 26.3865L1.35547 26.4638L1.43246 26.5312C1.89688 26.9526 2.61711 26.9875 3.42426 26.5212L17.9754 18.222L17.876 18.1322Z" fill="black"/>
<path opacity="0.12" fill-rule="evenodd" clip-rule="evenodd" d="M22.8328 15.2993L17.8633 18.1322L17.9527 18.2219L22.8204 15.4439C23.5183 15.0449 23.861 14.5212 23.861 14C23.8188 14.4788 23.4636 14.9327 22.8328 15.2993Z" fill="black"/>
<path opacity="0.25" fill-rule="evenodd" clip-rule="evenodd" d="M3.4139 1.62342L22.8327 12.7007C23.4635 13.0573 23.8186 13.5237 23.8733 14C23.8733 13.4788 23.5305 12.9551 22.8327 12.5561L3.4139 1.47878C2.02063 0.678279 0.890625 1.34661 0.890625 2.94511V3.08975C0.890625 1.48875 2.02063 0.832893 3.4139 1.62342Z" fill="white"/>
<defs>
<linearGradient id="paint0_linear_37_250" x1="12.6635" y1="2.70654" x2="-7.11088" y2="7.95384" gradientUnits="userSpaceOnUse">
<stop stop-color="#00A0FF"/>
<stop offset="0.00657" stop-color="#00A1FF"/>
<stop offset="0.2601" stop-color="#00BEFF"/>
<stop offset="0.5122" stop-color="#00D2FF"/>
<stop offset="0.7604" stop-color="#00DFFF"/>
<stop offset="1" stop-color="#00E3FF"/>
</linearGradient>
<linearGradient id="paint1_linear_37_250" x1="24.6472" y1="14" x2="0.54943" y2="14" gradientUnits="userSpaceOnUse">
<stop stop-color="#FFE000"/>
<stop offset="0.4087" stop-color="#FFBD00"/>
<stop offset="0.7754" stop-color="#FFA500"/>
<stop offset="1" stop-color="#FF9C00"/>
</linearGradient>
<linearGradient id="paint2_linear_37_250" x1="15.6773" y1="16.2973" x2="-0.285516" y2="43.0538" gradientUnits="userSpaceOnUse">
<stop stop-color="#FF3A44"/>
<stop offset="1" stop-color="#C31162"/>
</linearGradient>
<linearGradient id="paint3_linear_37_250" x1="-1.78253" y1="-5.82119" x2="5.33913" y2="6.1287" gradientUnits="userSpaceOnUse">
<stop stop-color="#32A071"/>
<stop offset="0.0685" stop-color="#2DA771"/>
<stop offset="0.4762" stop-color="#15CF74"/>
<stop offset="0.8009" stop-color="#06E775"/>
<stop offset="1" stop-color="#00F076"/>
</linearGradient>
</defs>
</svg>
