<svg width="100" height="26" viewBox="0 0 100 26" fill="none" xmlns="http://www.w3.org/2000/svg">
<path d="M14.7973 12.3002C14.8081 11.4655 15.0298 10.6472 15.4418 9.92121C15.8538 9.19526 16.4428 8.58532 17.1539 8.14815C16.7021 7.50299 16.1062 6.97205 15.4134 6.59749C14.7205 6.22294 13.9499 6.0151 13.1627 5.99047C11.4835 5.81421 9.85552 6.9953 8.99981 6.9953C8.12754 6.9953 6.81004 6.00797 5.39131 6.03716C4.47364 6.06681 3.57929 6.33366 2.79541 6.81172C2.01154 7.28978 1.36486 7.96273 0.918393 8.76503C-1.01561 12.1134 0.426982 17.0345 2.27959 19.7411C3.20649 21.0665 4.28977 22.5469 5.70722 22.4944C7.09428 22.4369 7.61232 21.6099 9.28662 21.6099C10.9454 21.6099 11.4314 22.4944 12.8776 22.461C14.366 22.4369 15.3038 21.1298 16.1981 19.7919C16.8641 18.8475 17.3766 17.8038 17.7166 16.6994C16.8518 16.3336 16.1139 15.7215 15.5948 14.9392C15.0757 14.1569 14.7983 13.2391 14.7973 12.3002V12.3002Z" fill="white"/>
<path d="M12.0669 4.2112C12.8784 3.23699 13.2782 1.98481 13.1814 0.720581C11.9416 0.850802 10.7963 1.44336 9.97381 2.38019C9.57167 2.83786 9.26367 3.37029 9.06743 3.94706C8.87118 4.52383 8.79053 5.13363 8.8301 5.74158C9.45024 5.74797 10.0637 5.61355 10.6244 5.34847C11.1851 5.08338 11.6783 4.69453 12.0669 4.2112Z" fill="white"/>
<path d="M32.332 19.1396H27.5986L26.4619 22.496H24.457L28.9404 10.078H31.0234L35.5068 22.496H33.4678L32.332 19.1396ZM28.0889 17.5907H31.8409L29.9913 12.1435H29.9395L28.0889 17.5907Z" fill="white"/>
<path d="M45.1885 17.9693C45.1885 20.7828 43.6826 22.5904 41.4102 22.5904C40.8345 22.6205 40.262 22.4879 39.7582 22.2078C39.2544 21.9277 38.8397 21.5113 38.5616 21.0064H38.5186V25.4908H36.6602V13.442H38.459V14.9478H38.4932C38.7841 14.4454 39.2059 14.0312 39.7135 13.7493C40.2211 13.4675 40.7957 13.3285 41.376 13.3473C43.6738 13.3473 45.1885 15.1637 45.1885 17.9693ZM43.2783 17.9693C43.2783 16.1363 42.3311 14.9312 40.8858 14.9312C39.4658 14.9312 38.5108 16.1617 38.5108 17.9693C38.5108 19.7935 39.4658 21.0152 40.8858 21.0152C42.3311 21.0152 43.2783 19.8189 43.2783 17.9693Z" fill="white"/>
<path d="M55.1533 17.9693C55.1533 20.7828 53.6475 22.5904 51.375 22.5904C50.7994 22.6205 50.2269 22.4879 49.7231 22.2078C49.2193 21.9276 48.8046 21.5113 48.5264 21.0064H48.4834V25.4908H46.625V13.442H48.4238V14.9478H48.458C48.749 14.4454 49.1707 14.0312 49.6783 13.7493C50.186 13.4675 50.7605 13.3285 51.3408 13.3473C53.6387 13.3473 55.1533 15.1637 55.1533 17.9693ZM53.2432 17.9693C53.2432 16.1363 52.2959 14.9312 50.8506 14.9312C49.4307 14.9312 48.4756 16.1617 48.4756 17.9693C48.4756 19.7935 49.4307 21.0152 50.8506 21.0152C52.2959 21.0152 53.2432 19.8189 53.2432 17.9693H53.2432Z" fill="white"/>
<path d="M61.7383 19.0361C61.876 20.2675 63.0723 21.0761 64.7071 21.0761C66.2735 21.0761 67.4004 20.2675 67.4004 19.1571C67.4004 18.1932 66.7207 17.6161 65.1114 17.2206L63.502 16.8329C61.2217 16.2821 60.1631 15.2157 60.1631 13.4852C60.1631 11.3427 62.0303 9.87097 64.6817 9.87097C67.3057 9.87097 69.1045 11.3427 69.1651 13.4852H67.2891C67.1768 12.246 66.1524 11.4979 64.6553 11.4979C63.1582 11.4979 62.1338 12.2548 62.1338 13.3563C62.1338 14.2343 62.7881 14.7509 64.3887 15.1463L65.7568 15.4823C68.3047 16.0848 69.3633 17.1083 69.3633 18.9247C69.3633 21.2479 67.5127 22.703 64.5693 22.703C61.8154 22.703 59.9561 21.2821 59.8359 19.036L61.7383 19.0361Z" fill="white"/>
<path d="M73.375 11.3007V13.4432H75.0967V14.9149H73.375V19.9061C73.375 20.6815 73.7197 21.0428 74.4766 21.0428C74.6809 21.0393 74.885 21.0249 75.0879 20.9998V22.4627C74.7476 22.5263 74.4018 22.5551 74.0557 22.5487C72.2227 22.5487 71.5078 21.8602 71.5078 20.1043V14.9149H70.1914V13.4432H71.5078V11.3007H73.375Z" fill="white"/>
<path d="M76.0938 17.9706C76.0938 15.1219 77.7715 13.3319 80.3877 13.3319C83.0127 13.3319 84.6826 15.1219 84.6826 17.9706C84.6826 20.827 83.0215 22.6092 80.3877 22.6092C77.7548 22.6092 76.0938 20.827 76.0938 17.9706ZM82.7891 17.9706C82.7891 16.0165 81.8935 14.8632 80.3877 14.8632C78.8818 14.8632 77.9873 16.0253 77.9873 17.9706C77.9873 19.9325 78.8818 21.077 80.3877 21.077C81.8935 21.077 82.789 19.9325 82.789 17.9706H82.7891Z" fill="white"/>
<path d="M86.2149 13.4419H87.9873V14.9829H88.0303C88.1502 14.5016 88.4322 14.0763 88.8288 13.7784C89.2254 13.4805 89.7124 13.3282 90.208 13.3472C90.4222 13.3464 90.6358 13.3697 90.8448 13.4165V15.1548C90.5744 15.0722 90.2924 15.0342 90.0098 15.0425C89.7398 15.0315 89.4706 15.0791 89.2208 15.182C88.971 15.2849 88.7463 15.4406 88.5624 15.6385C88.3784 15.8364 88.2394 16.0718 88.155 16.3284C88.0706 16.5851 88.0427 16.857 88.0732 17.1255V22.4956H86.2148L86.2149 13.4419Z" fill="white"/>
<path d="M99.4131 19.8378C99.1631 21.4813 97.5625 22.6092 95.5146 22.6092C92.8809 22.6092 91.2461 20.8446 91.2461 18.0135C91.2461 15.1737 92.8896 13.3319 95.4365 13.3319C97.9414 13.3319 99.5166 15.0526 99.5166 17.7977V18.4344H93.1221V18.5467C93.0926 18.8799 93.1343 19.2156 93.2445 19.5315C93.3546 19.8473 93.5308 20.1361 93.7611 20.3786C93.9915 20.6212 94.2708 20.8119 94.5805 20.9382C94.8903 21.0645 95.2233 21.1235 95.5576 21.1112C95.9968 21.1523 96.4375 21.0506 96.8142 20.8212C97.1909 20.5918 97.4835 20.2468 97.6484 19.8378L99.4131 19.8378ZM93.1309 17.1356H97.6572C97.6739 16.836 97.6285 16.5362 97.5238 16.255C97.4191 15.9738 97.2575 15.7173 97.0489 15.5015C96.8404 15.2857 96.5895 15.1154 96.3121 15.0012C96.0346 14.887 95.7365 14.8313 95.4365 14.8378C95.1339 14.836 94.8339 14.8941 94.5539 15.0089C94.2738 15.1236 94.0193 15.2927 93.8049 15.5063C93.5905 15.7199 93.4206 15.9739 93.3049 16.2535C93.1892 16.5332 93.1301 16.833 93.1309 17.1356V17.1356Z" fill="white"/>
<path d="M27.8546 0.73138C28.2442 0.703421 28.6352 0.762281 28.9993 0.903714C29.3634 1.04515 29.6916 1.26563 29.9602 1.54925C30.2288 1.83288 30.4311 2.17258 30.5525 2.54385C30.6739 2.91512 30.7114 3.30871 30.6622 3.69622C30.6622 5.60247 29.632 6.69822 27.8546 6.69822H25.6993V0.73138H27.8546ZM26.6261 5.85438H27.7511C28.0295 5.87102 28.3081 5.82537 28.5666 5.72076C28.8252 5.61615 29.0571 5.4552 29.2456 5.24963C29.4341 5.04407 29.5744 4.79906 29.6563 4.53244C29.7381 4.26582 29.7595 3.9843 29.7189 3.70838C29.7566 3.43355 29.733 3.15377 29.6499 2.88911C29.5668 2.62445 29.4262 2.38144 29.2381 2.17751C29.05 1.97358 28.8192 1.81378 28.5621 1.70954C28.305 1.6053 28.0281 1.55922 27.7511 1.57459H26.6261V5.85438Z" fill="white"/>
<path d="M31.7094 4.44563C31.6811 4.14971 31.7149 3.85114 31.8088 3.56908C31.9026 3.28701 32.0544 3.02766 32.2543 2.80768C32.4542 2.5877 32.698 2.41193 32.9698 2.29166C33.2417 2.17138 33.5357 2.10925 33.8329 2.10925C34.1302 2.10925 34.4242 2.17138 34.696 2.29166C34.9679 2.41193 35.2116 2.5877 35.4115 2.80768C35.6115 3.02766 35.7632 3.28701 35.8571 3.56908C35.9509 3.85114 35.9848 4.14971 35.9565 4.44563C35.9853 4.74185 35.9519 5.04083 35.8583 5.32336C35.7647 5.60588 35.613 5.8657 35.413 6.08612C35.213 6.30653 34.9691 6.48267 34.697 6.6032C34.4249 6.72373 34.1305 6.786 33.8329 6.786C33.5353 6.786 33.241 6.72373 32.9688 6.6032C32.6967 6.48267 32.4528 6.30653 32.2528 6.08612C32.0528 5.8657 31.9012 5.60588 31.8076 5.32336C31.714 5.04083 31.6805 4.74185 31.7094 4.44563V4.44563ZM35.0424 4.44563C35.0424 3.46956 34.6039 2.89876 33.8344 2.89876C33.0619 2.89876 32.6274 3.46956 32.6274 4.44564C32.6274 5.42953 33.062 5.99593 33.8344 5.99593C34.6039 5.99592 35.0424 5.42561 35.0424 4.44563H35.0424Z" fill="white"/>
<path d="M41.6017 6.69812H40.6798L39.7491 3.38171H39.6788L38.7521 6.69812H37.839L36.5978 2.19519H37.4991L38.3058 5.63119H38.3722L39.298 2.19519H40.1505L41.0763 5.63119H41.1466L41.9493 2.19519H42.838L41.6017 6.69812Z" fill="white"/>
<path d="M43.8829 2.19475H44.7384V2.91008H44.8048C44.9175 2.65316 45.1075 2.43778 45.3483 2.29398C45.5892 2.15017 45.869 2.0851 46.1486 2.10783C46.3677 2.09135 46.5877 2.12439 46.7923 2.20448C46.9969 2.28458 47.1808 2.40969 47.3305 2.57053C47.4802 2.73137 47.5918 2.92383 47.657 3.13365C47.7222 3.34347 47.7393 3.56527 47.7072 3.78263V6.69763H46.8185V4.00579C46.8185 3.28216 46.504 2.92229 45.8468 2.92229C45.698 2.91536 45.5495 2.94068 45.4115 2.99651C45.2734 3.05234 45.1491 3.13736 45.047 3.24574C44.9448 3.35413 44.8674 3.48331 44.8198 3.62444C44.7723 3.76557 44.7558 3.91531 44.7716 4.0634V6.69768H43.8829L43.8829 2.19475Z" fill="white"/>
<path d="M49.1212 0.437378H50.0099V6.69812H49.1212V0.437378Z" fill="white"/>
<path d="M51.2445 4.44376C51.2162 4.14782 51.2501 3.84924 51.344 3.56716C51.4378 3.28508 51.5896 3.02573 51.7896 2.80574C51.9895 2.58575 52.2333 2.40999 52.5051 2.28971C52.777 2.16943 53.071 2.1073 53.3683 2.1073C53.6656 2.1073 53.9596 2.16943 54.2315 2.28971C54.5033 2.40999 54.7471 2.58575 54.947 2.80574C55.147 3.02573 55.2988 3.28508 55.3926 3.56716C55.4865 3.84924 55.5204 4.14782 55.4921 4.44376C55.5209 4.74 55.4874 5.03898 55.3938 5.3215C55.3002 5.60403 55.1485 5.86384 54.9485 6.08425C54.7484 6.30466 54.5045 6.48078 54.2324 6.60131C53.9603 6.72184 53.6659 6.78411 53.3683 6.78411C53.0707 6.78411 52.7763 6.72184 52.5042 6.60131C52.2321 6.48078 51.9881 6.30466 51.7881 6.08425C51.5881 5.86384 51.4364 5.60403 51.3428 5.3215C51.2492 5.03898 51.2157 4.74 51.2445 4.44376V4.44376ZM54.5775 4.44376C54.5775 3.46769 54.139 2.89689 53.3695 2.89689C52.5971 2.89689 52.1625 3.46769 52.1625 4.44377C52.1625 5.42766 52.5971 5.99406 53.3695 5.99406C54.139 5.99405 54.5775 5.42374 54.5775 4.44376H54.5775Z" fill="white"/>
<path d="M56.4298 5.42565C56.4298 4.6151 57.0333 4.14782 58.1046 4.08141L59.3243 4.0111V3.62243C59.3243 3.14684 59.0099 2.87829 58.4025 2.87829C57.9064 2.87829 57.5626 3.06042 57.464 3.37878H56.6036C56.6945 2.60534 57.422 2.10925 58.4435 2.10925C59.5724 2.10925 60.2091 2.67125 60.2091 3.62243V6.69909H59.3536V6.06628H59.2833C59.1406 6.29328 58.9402 6.47832 58.7026 6.60254C58.465 6.72675 58.1986 6.78567 57.9308 6.77328C57.7418 6.79295 57.5507 6.77278 57.3699 6.71408C57.1892 6.65538 57.0227 6.55946 56.8813 6.43249C56.7399 6.30552 56.6266 6.15032 56.5489 5.97691C56.4711 5.80349 56.4306 5.61571 56.4298 5.42565V5.42565ZM59.3243 5.04088V4.66442L58.2247 4.73473C57.6046 4.77623 57.3234 4.98717 57.3234 5.38414C57.3234 5.78941 57.6749 6.02525 58.1584 6.02525C58.3 6.03959 58.4431 6.02529 58.5791 5.9832C58.7151 5.94111 58.8412 5.87209 58.95 5.78025C59.0588 5.68841 59.148 5.57562 59.2123 5.4486C59.2766 5.32158 59.3147 5.18293 59.3243 5.04088V5.04088Z" fill="white"/>
<path d="M61.3751 4.44472C61.3751 3.02187 62.1066 2.1205 63.2443 2.1205C63.5257 2.10753 63.805 2.17493 64.0495 2.31483C64.294 2.45472 64.4937 2.66133 64.6251 2.9105H64.6915V0.437378H65.5802V6.69812H64.7286V5.98669H64.6583C64.5167 6.23418 64.3101 6.43821 64.0609 6.5767C63.8116 6.71518 63.5292 6.78283 63.2443 6.77233C62.0988 6.77238 61.3751 5.87099 61.3751 4.44472ZM62.2931 4.44472C62.2931 5.3998 62.7433 5.97451 63.4963 5.97451C64.2453 5.97451 64.7082 5.39151 64.7082 4.44863C64.7082 3.51015 64.2404 2.91884 63.4963 2.91884C62.7482 2.91884 62.2931 3.49745 62.2931 4.44472H62.2931Z" fill="white"/>
<path d="M69.2602 4.44563C69.2319 4.14971 69.2657 3.85114 69.3595 3.56908C69.4534 3.28701 69.6051 3.02766 69.8051 2.80768C70.005 2.5877 70.2487 2.41193 70.5206 2.29166C70.7924 2.17138 71.0864 2.10925 71.3837 2.10925C71.681 2.10925 71.975 2.17138 72.2468 2.29166C72.5187 2.41193 72.7624 2.5877 72.9623 2.80768C73.1623 3.02766 73.314 3.28701 73.4078 3.56908C73.5017 3.85114 73.5355 4.14971 73.5072 4.44563C73.5361 4.74185 73.5026 5.04083 73.409 5.32336C73.3154 5.60588 73.1638 5.8657 72.9638 6.08612C72.7638 6.30653 72.5199 6.48267 72.2478 6.6032C71.9757 6.72373 71.6813 6.786 71.3837 6.786C71.0861 6.786 70.7917 6.72373 70.5196 6.6032C70.2475 6.48267 70.0036 6.30653 69.8036 6.08612C69.6036 5.8657 69.452 5.60588 69.3584 5.32336C69.2648 5.04083 69.2313 4.74185 69.2602 4.44563V4.44563ZM72.5932 4.44563C72.5932 3.46956 72.1547 2.89876 71.3852 2.89876C70.6127 2.89876 70.1782 3.46956 70.1782 4.44564C70.1782 5.42953 70.6127 5.99593 71.3852 5.99593C72.1547 5.99592 72.5932 5.42561 72.5932 4.44563Z" fill="white"/>
<path d="M74.6993 2.19475H75.5548V2.91008H75.6212C75.7339 2.65316 75.9239 2.43778 76.1647 2.29398C76.4056 2.15017 76.6854 2.0851 76.965 2.10783C77.1841 2.09135 77.4041 2.12439 77.6087 2.20448C77.8133 2.28458 77.9972 2.40969 78.1469 2.57053C78.2966 2.73137 78.4082 2.92383 78.4734 3.13365C78.5386 3.34347 78.5557 3.56527 78.5236 3.78263V6.69763H77.6349V4.00579C77.6349 3.28216 77.3204 2.92229 76.6632 2.92229C76.5145 2.91536 76.366 2.94068 76.2279 2.99651C76.0898 3.05234 75.9655 3.13736 75.8634 3.24574C75.7612 3.35413 75.6838 3.48331 75.6362 3.62444C75.5887 3.76557 75.5723 3.91531 75.588 4.0634V6.69768H74.6993V2.19475Z" fill="white"/>
<path d="M83.5421 1.0741V2.2157H84.5177V2.96424H83.5421V5.27967C83.5421 5.75135 83.7365 5.95789 84.1788 5.95789C84.2921 5.95752 84.4052 5.95068 84.5177 5.93738V6.67761C84.3581 6.70616 84.1964 6.72135 84.0343 6.72302C83.046 6.72302 82.6525 6.37536 82.6525 5.5072V2.9642H81.9376V2.21566H82.6525V1.0741H83.5421Z" fill="white"/>
<path d="M85.7345 0.437378H86.6154V2.91883H86.6857C86.8038 2.65951 86.999 2.44292 87.2447 2.29857C87.4904 2.15422 87.7746 2.08914 88.0587 2.11219C88.2766 2.10033 88.4945 2.13672 88.6968 2.21876C88.8991 2.3008 89.0808 2.42647 89.2289 2.58681C89.377 2.74715 89.4879 2.9382 89.5537 3.14634C89.6195 3.35447 89.6385 3.57456 89.6094 3.7909V6.69813H88.7199V4.01013C88.7199 3.29089 88.3849 2.92663 87.757 2.92663C87.6043 2.9141 87.4506 2.9351 87.3068 2.98815C87.1631 3.04121 87.0326 3.12503 86.9246 3.23377C86.8166 3.34251 86.7337 3.47353 86.6816 3.61767C86.6296 3.7618 86.6096 3.91558 86.6232 4.06823V6.69811H85.7345L85.7345 0.437378Z" fill="white"/>
<path d="M94.7889 5.4814C94.6681 5.89293 94.4065 6.24892 94.0498 6.48707C93.6931 6.72522 93.2641 6.83037 92.8377 6.78413C92.541 6.79196 92.2462 6.73514 91.9737 6.61761C91.7012 6.50008 91.4575 6.32466 91.2596 6.10352C91.0617 5.88238 90.9143 5.62083 90.8276 5.337C90.7409 5.05318 90.717 4.7539 90.7576 4.45992C90.7181 4.16503 90.7424 3.8651 90.8289 3.58043C90.9154 3.29575 91.062 3.03299 91.2589 2.80991C91.4558 2.58684 91.6983 2.40867 91.97 2.28746C92.2417 2.16625 92.5363 2.10484 92.8338 2.10738C94.0867 2.10738 94.8426 2.96337 94.8426 4.37737V4.68746H91.6629V4.73726C91.649 4.90251 91.6697 5.06884 91.7239 5.22559C91.778 5.38234 91.8643 5.52605 91.9772 5.64751C92.0901 5.76896 92.2271 5.86548 92.3795 5.93088C92.5319 5.99628 92.6963 6.02911 92.8621 6.02726C93.0747 6.05278 93.29 6.01451 93.4808 5.9173C93.6716 5.82009 93.8291 5.66835 93.9334 5.48137L94.7889 5.4814ZM91.6629 4.03022H93.9373C93.9485 3.8791 93.9279 3.7273 93.877 3.58458C93.826 3.44186 93.7458 3.31138 93.6414 3.20152C93.537 3.09167 93.4108 3.00486 93.2709 2.94669C93.1309 2.88851 92.9804 2.86025 92.8289 2.86372C92.6752 2.86179 92.5226 2.89065 92.3803 2.9486C92.2379 3.00654 92.1086 3.0924 91.9999 3.20111C91.8912 3.30983 91.8054 3.43919 91.7476 3.58159C91.6897 3.72399 91.6609 3.87653 91.6629 4.03022H91.6629Z" fill="white"/>
</svg>
