<svg width="249" height="177" viewBox="0 0 249 177" fill="none" xmlns="http://www.w3.org/2000/svg">
<g filter="url(#filter0_i_39_277)">
<path d="M1 138.673L1 65.604C1 47.9613 1 39.14 6.48088 33.6591C11.9618 28.1782 20.7831 28.1782 38.4258 28.1782L63.4681 28.1782C71.117 28.1782 74.9415 28.1782 78.3803 26.7538C81.8192 25.3294 84.5235 22.6251 89.9321 17.2165L95.1869 11.9617C100.595 6.55315 103.3 3.84886 106.739 2.42443C110.178 0.999996 114.002 0.999996 121.651 0.999996L210.406 0.999993C228.049 0.999992 236.87 0.999992 242.351 6.48087C247.832 11.9617 247.832 20.7831 247.832 38.4257L247.832 138.673C247.832 156.316 247.832 165.137 242.351 170.618C236.87 176.099 228.049 176.099 210.406 176.099L38.4258 176.099C20.7831 176.099 11.9618 176.099 6.48088 170.618C1.00001 165.137 1.00001 156.316 1 138.673Z" fill="black"/>
</g>
<path d="M1 138.673L1 65.604C1 47.9613 1 39.14 6.48088 33.6591C11.9618 28.1782 20.7831 28.1782 38.4258 28.1782L63.4681 28.1782C71.117 28.1782 74.9415 28.1782 78.3803 26.7538C81.8192 25.3294 84.5235 22.6251 89.9321 17.2165L95.1869 11.9617C100.595 6.55315 103.3 3.84886 106.739 2.42443C110.178 0.999996 114.002 0.999996 121.651 0.999996L210.406 0.999993C228.049 0.999992 236.87 0.999992 242.351 6.48087C247.832 11.9617 247.832 20.7831 247.832 38.4257L247.832 138.673C247.832 156.316 247.832 165.137 242.351 170.618C236.87 176.099 228.049 176.099 210.406 176.099L38.4258 176.099C20.7831 176.099 11.9618 176.099 6.48088 170.618C1.00001 165.137 1.00001 156.316 1 138.673Z" stroke="#66A8F0" stroke-width="1.78218"/>
<defs>
<filter id="filter0_i_39_277" x="0.10891" y="0.108887" width="248.614" height="176.881" filterUnits="userSpaceOnUse" color-interpolation-filters="sRGB">
<feFlood flood-opacity="0" result="BackgroundImageFix"/>
<feBlend mode="normal" in="SourceGraphic" in2="BackgroundImageFix" result="shape"/>
<feColorMatrix in="SourceAlpha" type="matrix" values="0 0 0 0 0 0 0 0 0 0 0 0 0 0 0 0 0 0 127 0" result="hardAlpha"/>
<feOffset/>
<feGaussianBlur stdDeviation="17.8218"/>
<feComposite in2="hardAlpha" operator="arithmetic" k2="-1" k3="1"/>
<feColorMatrix type="matrix" values="0 0 0 0 0.4 0 0 0 0 0.658824 0 0 0 0 0.941176 0 0 0 1 0"/>
<feBlend mode="normal" in2="shape" result="effect1_innerShadow_39_277"/>
</filter>
</defs>
</svg>
