<svg width="239" height="170" viewBox="0 0 239 170" fill="none" xmlns="http://www.w3.org/2000/svg">
<g filter="url(#filter0_i_39_278)">
<path d="M238 36.9093L238 107.016C238 123.943 238 132.407 232.741 137.665C227.483 142.924 219.019 142.924 202.092 142.924L178.065 142.924C170.726 142.924 167.057 142.924 163.757 144.291C160.458 145.657 157.863 148.252 152.674 153.441L147.632 158.483C142.443 163.672 139.849 166.267 136.549 167.633C133.25 169 129.58 169 122.242 169L37.0853 169C20.158 169 11.6944 169 6.43575 163.741C1.17711 158.483 1.17711 150.019 1.17711 133.092L1.1771 36.9093C1.17709 19.982 1.17709 11.5184 6.43573 6.25975C11.6943 1.00112 20.158 1.00113 37.0853 1.00113L202.092 1.00114C219.019 1.00114 227.483 1.00114 232.741 6.25977C238 11.5184 238 19.982 238 36.9093Z" fill="black"/>
</g>
<path d="M238 36.9093L238 107.016C238 123.943 238 132.407 232.741 137.665C227.483 142.924 219.019 142.924 202.092 142.924L178.065 142.924C170.726 142.924 167.057 142.924 163.757 144.291C160.458 145.657 157.863 148.252 152.674 153.441L147.632 158.483C142.443 163.672 139.849 166.267 136.549 167.633C133.25 169 129.58 169 122.242 169L37.0853 169C20.158 169 11.6944 169 6.43575 163.741C1.17711 158.483 1.17711 150.019 1.17711 133.092L1.1771 36.9093C1.17709 19.982 1.17709 11.5184 6.43573 6.25975C11.6943 1.00112 20.158 1.00113 37.0853 1.00113L202.092 1.00114C219.019 1.00114 227.483 1.00114 232.741 6.25977C238 11.5184 238 19.982 238 36.9093Z" stroke="#66A8F0" stroke-width="1.70991"/>
<defs>
<filter id="filter0_i_39_278" x="0.322144" y="0.145996" width="238.533" height="169.709" filterUnits="userSpaceOnUse" color-interpolation-filters="sRGB">
<feFlood flood-opacity="0" result="BackgroundImageFix"/>
<feBlend mode="normal" in="SourceGraphic" in2="BackgroundImageFix" result="shape"/>
<feColorMatrix in="SourceAlpha" type="matrix" values="0 0 0 0 0 0 0 0 0 0 0 0 0 0 0 0 0 0 127 0" result="hardAlpha"/>
<feOffset/>
<feGaussianBlur stdDeviation="17.5266"/>
<feComposite in2="hardAlpha" operator="arithmetic" k2="-1" k3="1"/>
<feColorMatrix type="matrix" values="0 0 0 0 0.4 0 0 0 0 0.658824 0 0 0 0 0.941176 0 0 0 1 0"/>
<feBlend mode="normal" in2="shape" result="effect1_innerShadow_39_278"/>
</filter>
</defs>
</svg>
