<svg width="253" height="180" viewBox="0 0 253 180" fill="none" xmlns="http://www.w3.org/2000/svg">
<g filter="url(#filter0_i_39_276)">
<path d="M251.599 140.775L251.599 66.5901C251.599 48.6781 251.599 39.7221 246.034 34.1576C240.47 28.5931 231.514 28.5931 213.602 28.5931L188.178 28.5931C180.412 28.5931 176.529 28.5931 173.038 27.1469C169.546 25.7007 166.801 22.9551 161.31 17.464L155.975 12.1291C150.484 6.63793 147.738 3.89235 144.247 2.44617C140.755 0.99999 136.872 0.99999 129.107 0.999989L38.997 0.999981C21.085 0.99998 12.1291 0.999979 6.56453 6.56451C1 12.129 1 21.085 1 38.9969L1 140.775C1 158.687 1 167.643 6.56453 173.207C12.1291 178.772 21.085 178.772 38.997 178.772L213.602 178.772C231.514 178.772 240.47 178.772 246.034 173.207C251.599 167.643 251.599 158.687 251.599 140.775Z" fill="black"/>
</g>
<path d="M251.599 140.775L251.599 66.5901C251.599 48.6781 251.599 39.7221 246.034 34.1576C240.47 28.5931 231.514 28.5931 213.602 28.5931L188.178 28.5931C180.412 28.5931 176.529 28.5931 173.038 27.1469C169.546 25.7007 166.801 22.9551 161.31 17.464L155.975 12.1291C150.484 6.63793 147.738 3.89235 144.247 2.44617C140.755 0.99999 136.872 0.99999 129.107 0.999989L38.997 0.999981C21.085 0.99998 12.1291 0.999979 6.56453 6.56451C1 12.129 1 21.085 1 38.9969L1 140.775C1 158.687 1 167.643 6.56453 173.207C12.1291 178.772 21.085 178.772 38.997 178.772L213.602 178.772C231.514 178.772 240.47 178.772 246.034 173.207C251.599 167.643 251.599 158.687 251.599 140.775Z" stroke="#66A8F0" stroke-width="1.80938"/>
<defs>
<filter id="filter0_i_39_276" x="0.0953064" y="0.0952148" width="252.408" height="179.582" filterUnits="userSpaceOnUse" color-interpolation-filters="sRGB">
<feFlood flood-opacity="0" result="BackgroundImageFix"/>
<feBlend mode="normal" in="SourceGraphic" in2="BackgroundImageFix" result="shape"/>
<feColorMatrix in="SourceAlpha" type="matrix" values="0 0 0 0 0 0 0 0 0 0 0 0 0 0 0 0 0 0 127 0" result="hardAlpha"/>
<feOffset/>
<feGaussianBlur stdDeviation="18.5462"/>
<feComposite in2="hardAlpha" operator="arithmetic" k2="-1" k3="1"/>
<feColorMatrix type="matrix" values="0 0 0 0 0.4 0 0 0 0 0.658824 0 0 0 0 0.941176 0 0 0 1 0"/>
<feBlend mode="normal" in2="shape" result="effect1_innerShadow_39_276"/>
</filter>
</defs>
</svg>
