<svg width="773" height="125" viewBox="0 0 773 125" fill="none" xmlns="http://www.w3.org/2000/svg">
<g clip-path="url(#clip0_69_2)">
<path d="M39.5187 125C32.0238 125 25.4231 123.762 19.7594 121.329C14.0956 118.895 9.539 115.48 6.13222 111.168C2.72543 106.856 0.681357 101.819 0 96.1407H21.9738C22.6551 99.4279 24.4863 102.246 27.5098 104.594C30.5333 106.942 34.4085 108.094 39.1781 108.094C43.9476 108.094 47.4395 107.112 49.6539 105.191C51.8683 103.27 52.9755 101.05 52.9755 98.5314C52.9755 94.9026 51.3999 92.4265 48.206 91.1031C45.0122 89.7797 40.5834 88.4989 34.9196 87.2609C31.2999 86.4498 27.595 85.5106 23.8475 84.3579C20.1 83.2052 16.6507 81.7537 13.542 80.0034C10.4333 78.253 7.8782 75.9477 5.96188 73.1728C4.04556 70.3978 3.06611 66.9399 3.06611 62.8415C3.06611 55.3278 6.04705 49.0095 12.0089 43.8866C17.9708 38.7636 26.36 36.2021 37.134 36.2021C47.1414 36.2021 55.1048 38.5502 61.0667 43.2035C67.0285 47.8569 70.5631 54.3032 71.7129 62.5H51.1018C49.8668 56.2244 45.1399 53.1079 36.9636 53.1079C32.8755 53.1079 29.7242 53.919 27.5098 55.4986C25.2954 57.0782 24.1882 59.0847 24.1882 61.4754C24.1882 63.9942 25.849 65.958 29.128 67.4521C32.4071 68.9463 36.7933 70.3125 42.2442 71.5505C48.1635 72.9166 53.5717 74.4108 58.5116 76.0758C63.4514 77.7407 67.4118 80.1741 70.3502 83.4187C73.2885 86.6632 74.779 91.3166 74.779 97.336C74.9067 102.587 73.544 107.283 70.6908 111.51C67.8376 115.736 63.7495 119.023 58.4264 121.414C53.1033 123.805 46.8007 125 39.5187 125Z" fill="white"/>
<path d="M100.671 25.1025C96.7101 25.1025 93.4311 23.9071 90.876 21.5164C88.3209 19.1257 87.0434 16.0946 87.0434 12.4658C87.0434 8.83709 88.3209 5.8487 90.876 3.50068C93.4311 1.15266 96.7101 0 100.671 0C104.631 0 107.91 1.15266 110.465 3.50068C113.02 5.8487 114.298 8.83709 114.298 12.4658C114.298 16.0946 113.02 19.1257 110.465 21.5164C107.91 23.9071 104.631 25.1025 100.671 25.1025ZM89.7688 122.951V38.2514H111.572V122.951H89.7688Z" fill="white"/>
<path d="M129.288 122.951V0H151.091V122.951H129.288Z" fill="white"/>
<path d="M168.295 122.951V0H190.099V51.2295C192.952 46.5762 196.785 42.9047 201.597 40.2152C206.409 37.5256 211.945 36.2022 218.205 36.2022C228.638 36.2022 236.729 39.4894 242.478 46.1066C248.227 52.7237 251.08 62.3719 251.08 75.1366V122.951H229.447V77.1858C229.447 69.8856 227.999 64.3357 225.103 60.4508C222.208 56.5659 217.651 54.6448 211.391 54.6448C205.131 54.6448 200.191 56.8221 196.146 61.1339C192.1 65.4457 190.099 71.5078 190.099 79.235V122.951H168.295Z" fill="white"/>
<path d="M307.292 125C299.116 125 291.749 123.122 285.233 119.365C278.718 115.608 273.522 110.4 269.732 103.74C265.942 97.0799 264.026 89.3528 264.026 80.6011C264.026 71.8493 265.942 64.1222 269.818 57.4624C273.693 50.8026 278.888 45.5942 285.404 41.8374C291.919 38.0806 299.286 36.2021 307.463 36.2021C315.639 36.2021 322.836 38.0806 329.351 41.8374C335.867 45.5942 341.062 50.8026 344.852 57.4624C348.642 64.1222 350.558 71.8493 350.558 80.6011C350.558 89.3528 348.642 97.0799 344.852 103.74C341.062 110.4 335.867 115.608 329.266 119.365C322.665 123.122 315.341 125 307.292 125ZM307.292 106.045C312.956 106.045 317.896 103.91 322.112 99.6414C326.328 95.3722 328.414 89.0112 328.414 80.6011C328.414 72.1909 326.328 65.8299 322.112 61.5608C317.896 57.2916 313.041 55.1571 307.463 55.1571C301.884 55.1571 296.689 57.2916 292.558 61.5608C288.427 65.8299 286.34 72.1909 286.34 80.6011C286.34 89.0112 288.427 95.3722 292.558 99.6414C296.689 103.91 301.628 106.045 307.292 106.045Z" fill="white"/>
<path d="M396.55 125C385.989 125 377.855 121.713 372.106 115.096C366.357 108.479 363.504 98.8304 363.504 86.0657V38.2515H385.137V84.0165C385.137 91.3167 386.628 96.8666 389.566 100.751C392.504 104.636 397.189 106.557 403.534 106.557C409.538 106.557 414.521 104.38 418.439 100.068C422.356 95.7566 424.315 89.6944 424.315 81.9673V38.2515H446.119V122.951H426.87L425.167 108.607C422.569 113.602 418.779 117.615 413.839 120.56C408.9 123.506 403.151 125 396.55 125Z" fill="white"/>
<path d="M504.375 125C495.858 125 488.32 123.164 481.72 119.535C475.119 115.907 469.966 110.784 466.219 104.167C462.471 97.5495 460.598 89.9504 460.598 81.2841C460.598 72.6178 462.429 64.7199 466.134 57.8893C469.839 51.0587 474.949 45.7223 481.464 41.9228C487.98 38.1233 495.688 36.2021 504.545 36.2021C512.849 36.2021 520.174 38.0379 526.519 41.6666C532.864 45.2954 537.847 50.2903 541.424 56.6086C545.001 62.9269 546.789 69.9709 546.789 77.6981C546.789 78.9361 546.789 80.2595 546.704 81.6256C546.662 82.9918 546.576 84.4006 546.449 85.8948H482.231C482.699 92.5119 484.999 97.6776 489.129 101.434C493.26 105.191 498.285 107.07 504.204 107.07C508.633 107.07 512.338 106.088 515.362 104.081C518.385 102.075 520.6 99.5133 522.09 96.3114H544.234C542.659 101.648 540.018 106.515 536.313 110.912C532.609 115.309 528.095 118.724 522.686 121.243C517.278 123.762 511.188 125 504.375 125ZM504.545 53.9617C499.222 53.9617 494.495 55.4559 490.407 58.487C486.319 61.5181 483.721 66.086 482.571 72.2336H524.645C524.305 66.641 522.26 62.2011 518.513 58.9139C514.766 55.6267 510.124 53.9617 504.545 53.9617Z" fill="white"/>
<path d="M596.188 122.951C587.33 122.951 580.218 120.773 574.895 116.462C569.572 112.15 566.889 104.465 566.889 93.4084V56.5232H552.411V38.2513H566.889L569.444 15.5396H588.693V38.2513H611.518V56.5232H588.693V93.5792C588.693 97.6775 589.587 100.495 591.333 102.032C593.079 103.569 596.145 104.337 600.446 104.337H611.007V122.951H596.188Z" fill="white"/>
<path d="M662.79 122.951C653.933 122.951 646.821 120.773 641.498 116.462C636.175 112.15 633.492 104.465 633.492 93.4084V56.5232H619.013V38.2513H633.492L636.047 15.5396H655.295V38.2513H678.121V56.5232H655.295V93.5792C655.295 97.6775 656.19 100.495 657.936 102.032C659.682 103.569 662.748 104.337 667.049 104.337H677.61V122.951H662.79Z" fill="white"/>
<path d="M730.585 125C722.069 125 714.531 123.164 707.93 119.535C701.33 115.907 696.177 110.784 692.43 104.167C688.682 97.5495 686.808 89.9504 686.808 81.2841C686.808 72.6178 688.639 64.7199 692.344 57.8893C696.049 51.0587 701.159 45.7223 707.675 41.9228C714.19 38.1233 721.898 36.2021 730.756 36.2021C739.06 36.2021 746.384 38.0379 752.73 41.6666C759.075 45.2954 764.057 50.2903 767.634 56.6086C771.211 62.9269 773 69.9709 773 77.6981C773 78.9361 773 80.2595 772.915 81.6256C772.872 82.9918 772.787 84.4006 772.659 85.8948H708.441C708.91 92.5119 711.209 97.6776 715.34 101.434C719.471 105.191 724.496 107.07 730.415 107.07C734.844 107.07 738.549 106.088 741.572 104.081C744.596 102.075 746.81 99.5133 748.301 96.3114H770.445C768.869 101.648 766.229 106.515 762.524 110.912C758.819 115.309 754.305 118.724 748.897 121.243C743.489 123.762 737.399 125 730.585 125ZM730.756 53.9617C725.433 53.9617 720.706 55.4559 716.618 58.487C712.53 61.5181 709.932 66.086 708.782 72.2336H750.856C750.515 66.641 748.471 62.2011 744.724 58.9139C740.976 55.6267 736.334 53.9617 730.756 53.9617Z" fill="white"/>
</g>
<defs>
<clipPath id="clip0_69_2">
<rect width="773" height="125" fill="white"/>
</clipPath>
</defs>
</svg>
